<svg width="0" height="0" class="hidden">
  <symbol fill="" xmlns="http://www.w3.org/2000/svg" viewBox="0 0 62 62" id="face-sm">
    <path fill-rule="evenodd" clip-rule="evenodd" d="M4 31C4 16.0883 16.0883 4 31 4C45.9117 4 58 16.0883 58 31C58 45.9117 45.9117 58 31 58C16.0883 58 4 45.9117 4 31ZM31 0C13.8792 0 0 13.8792 0 31C0 48.1208 13.8792 62 31 62C48.1208 62 62 48.1208 62 31C62 13.8792 48.1208 0 31 0ZM22 27C24.2091 27 26 25.2091 26 23C26 20.7909 24.2091 19 22 19C19.7909 19 18 20.7909 18 23C18 25.2091 19.7909 27 22 27ZM40 27C42.2091 27 44 25.2091 44 23C44 20.7909 42.2091 19 40 19C37.7909 19 36 20.7909 36 23C36 25.2091 37.7909 27 40 27ZM20 43.5882C20 37.7405 24.7405 33 30.5882 33H31.4118C37.2595 33 42 37.7405 42 43.5882C42 44.3679 41.3679 45 40.5882 45H21.4118C20.6321 45 20 44.3679 20 43.5882Z"></path>
  </symbol>
  <symbol fill="" xmlns="http://www.w3.org/2000/svg" viewBox="0 0 62 62" id="face-xl">
    <path fill-rule="evenodd" clip-rule="evenodd" d="M4 31C4 16.0883 16.0883 4 31 4C45.9117 4 58 16.0883 58 31C58 45.9117 45.9117 58 31 58C16.0883 58 4 45.9117 4 31ZM31 0C13.8792 0 0 13.8792 0 31C0 48.1208 13.8792 62 31 62C48.1208 62 62 48.1208 62 31C62 13.8792 48.1208 0 31 0ZM22 27C24.2091 27 26 25.2091 26 23C26 20.7909 24.2091 19 22 19C19.7909 19 18 20.7909 18 23C18 25.2091 19.7909 27 22 27ZM40 27C42.2091 27 44 25.2091 44 23C44 20.7909 42.2091 19 40 19C37.7909 19 36 20.7909 36 23C36 25.2091 37.7909 27 40 27ZM22.9588 38.0962C22.7368 37.0199 21.6869 36.3234 20.6078 36.5392C19.5247 36.7558 18.8222 37.8095 19.0389 38.8926C19.4499 40.5505 20.1836 42.1085 21.2253 43.4672C22.9928 45.7726 26.0523 48.0004 31 48.0004C35.9477 48.0004 39.0072 45.7726 40.7747 43.4672C41.8164 42.1085 42.5502 40.5505 42.9612 38.8926C43.1778 37.8095 42.4754 36.7558 41.3923 36.5392C40.3131 36.3234 39.2632 37.0199 39.0413 38.0962C38.8061 39.1641 38.2615 40.1711 37.6003 41.0335C36.4928 42.4781 34.5523 44.0004 31 44.0004C27.4477 44.0004 25.5072 42.4781 24.3997 41.0335C23.7484 40.184 23.191 39.1519 22.9588 38.0962Z"></path>
  </symbol>
  <symbol fill="" xmlns="http://www.w3.org/2000/svg" viewBox="0 0 62 62" id="face-xxl">
    <path fill-rule="evenodd" clip-rule="evenodd" d="M31 4C16.0883 4 4 16.0883 4 31C4 45.9117 16.0883 58 31 58C45.9117 58 58 45.9117 58 31C58 16.0883 45.9117 4 31 4ZM0 31C0 13.8792 13.8792 0 31 0C48.1208 0 62 13.8792 62 31C62 48.1208 48.1208 62 31 62C13.8792 62 0 48.1208 0 31ZM26 23C26 25.2091 24.2091 27 22 27C19.7909 27 18 25.2091 18 23C18 20.7909 19.7909 19 22 19C24.2091 19 26 20.7909 26 23ZM44 23C44 25.2091 42.2091 27 40 27C37.7909 27 36 25.2091 36 23C36 20.7909 37.7909 19 40 19C42.2091 19 44 20.7909 44 23ZM30.5882 48C24.7405 48 20 43.2595 20 37.4118C20 36.6321 20.6321 36 21.4118 36H40.5882C41.3679 36 42 36.6321 42 37.4118C42 43.2595 37.2595 48 31.4118 48H30.5882Z"></path>
  </symbol>
  <symbol fill="" xmlns="http://www.w3.org/2000/svg" viewBox="0 0 62 62" id="face-lg">
    <path fill-rule="evenodd" clip-rule="evenodd" d="M4 31C4 16.0883 16.0883 4 31 4C45.9117 4 58 16.0883 58 31C58 45.9117 45.9117 58 31 58C16.0883 58 4 45.9117 4 31ZM31 0C13.8792 0 0 13.8792 0 31C0 48.1208 13.8792 62 31 62C48.1208 62 62 48.1208 62 31C62 13.8792 48.1208 0 31 0ZM22 27C24.2091 27 26 25.2091 26 23C26 20.7909 24.2091 19 22 19C19.7909 19 18 20.7909 18 23C18 25.2091 19.7909 27 22 27ZM40 27C42.2091 27 44 25.2091 44 23C44 20.7909 42.2091 19 40 19C37.7909 19 36 20.7909 36 23C36 25.2091 37.7909 27 40 27ZM22 39C20.8954 39 20 39.8954 20 41C20 42.1046 20.8954 43 22 43H40C41.1046 43 42 42.1046 42 41C42 39.8954 41.1046 39 40 39H22Z"></path>
  </symbol>
  <symbol fill="" xmlns="http://www.w3.org/2000/svg" viewBox="0 0 62 62" id="face-md">
    <path fill-rule="evenodd" clip-rule="evenodd" d="M31 4C16.0883 4 4 16.0883 4 31C4 45.9117 16.0883 58 31 58C45.9117 58 58 45.9117 58 31C58 16.0883 45.9117 4 31 4ZM0 31C0 13.8792 13.8792 0 31 0C48.1208 0 62 13.8792 62 31C62 48.1208 48.1208 62 31 62C13.8792 62 0 48.1208 0 31ZM26 23C26 25.2091 24.2091 27 22 27C19.7909 27 18 25.2091 18 23C18 20.7909 19.7909 19 22 19C24.2091 19 26 20.7909 26 23ZM44 23C44 25.2091 42.2091 27 40 27C37.7909 27 36 25.2091 36 23C36 20.7909 37.7909 19 40 19C42.2091 19 44 20.7909 44 23ZM20.6078 45.9612C21.6869 46.177 22.7368 45.4805 22.9588 44.4041C23.191 43.3485 23.7484 42.3164 24.3997 41.4669C25.5072 40.0223 27.4477 38.5 31 38.5C34.5523 38.5 36.4928 40.0223 37.6003 41.4669C38.2615 42.3292 38.8061 43.3363 39.0413 44.4042C39.2632 45.4805 40.3131 46.177 41.3923 45.9612C42.4754 45.7445 43.1778 44.6909 42.9612 43.6078C42.5502 41.9499 41.8164 40.3918 40.7747 39.0331C39.0072 36.7277 35.9477 34.5 31 34.5C26.0523 34.5 22.9928 36.7277 21.2253 39.0331C20.1836 40.3918 19.4499 41.9499 19.0389 43.6078C18.8222 44.6909 19.5247 45.7445 20.6078 45.9612Z"></path>
  </symbol>
  <symbol fill="" xmlns="http://www.w3.org/2000/svg" viewBox="0 0 20 15" id="done">
    <path fill-rule="evenodd" clip-rule="evenodd" d="M19.5375 0.470721C20.1542 1.09835 20.1542 2.11594 19.5375 2.74356L7.95859 14.5293C7.34197 15.1569 6.34224 15.1569 5.72562 14.5293L0.462463 9.17214C-0.154154 8.54451 -0.154154 7.52692 0.462463 6.89929C1.07908 6.27166 2.07881 6.27166 2.69543 6.89929L6.84211 11.12L17.3046 0.470721C17.9212 -0.156907 18.9209 -0.156907 19.5375 0.470721Z"></path>
  </symbol>
  <symbol fill="" xmlns="http://www.w3.org/2000/svg" viewBox="0 0 8 12" id="arrow">
    <path fill-rule="evenodd" clip-rule="evenodd" d="M7.0406 11.7071C7.43113 11.3166 7.43113 10.6834 7.0406 10.2929L2.74771 6L7.0406 1.70711C7.43113 1.31658 7.43113 0.683417 7.0406 0.292893C6.65008 -0.0976314 6.01691 -0.0976313 5.62639 0.292894L0.626389 5.29289C0.235864 5.68342 0.235864 6.31658 0.626389 6.70711L5.62639 11.7071C6.01691 12.0976 6.65008 12.0976 7.0406 11.7071Z"></path>
  </symbol>
</svg>